<mxfile host="Electron" agent="Mozilla/5.0 (Windows NT 10.0; Win64; x64) AppleWebKit/537.36 (KHTML, like Gecko) draw.io/24.7.17 Chrome/128.0.6613.36 Electron/32.0.1 Safari/537.36" version="24.7.17">
  <diagram id="C5RBs43oDa-KdzZeNtuy" name="Page-1">
    <mxGraphModel dx="-307" dy="404" grid="1" gridSize="10" guides="1" tooltips="1" connect="1" arrows="1" fold="1" page="1" pageScale="1" pageWidth="827" pageHeight="1169" math="0" shadow="0">
      <root>
        <mxCell id="WIyWlLk6GJQsqaUBKTNV-0" />
        <mxCell id="WIyWlLk6GJQsqaUBKTNV-1" parent="WIyWlLk6GJQsqaUBKTNV-0" />
        <mxCell id="M_dLQAkwJJrqiYV25v6W-36" style="edgeStyle=elbowEdgeStyle;shape=connector;rounded=0;orthogonalLoop=1;jettySize=auto;elbow=vertical;html=1;entryX=1;entryY=0.5;entryDx=0;entryDy=0;strokeColor=default;align=center;verticalAlign=middle;arcSize=0;fontFamily=Helvetica;fontSize=11;fontColor=default;labelBackgroundColor=default;endArrow=none;endFill=0;" parent="WIyWlLk6GJQsqaUBKTNV-1" source="M_dLQAkwJJrqiYV25v6W-28" edge="1">
          <mxGeometry relative="1" as="geometry">
            <Array as="points">
              <mxPoint x="820" y="310" />
            </Array>
            <mxPoint x="780" y="500" as="targetPoint" />
          </mxGeometry>
        </mxCell>
        <mxCell id="M_dLQAkwJJrqiYV25v6W-66" value="1, n" style="edgeLabel;html=1;align=center;verticalAlign=middle;resizable=0;points=[];fontFamily=Helvetica;fontSize=11;fontColor=default;labelBackgroundColor=default;" parent="M_dLQAkwJJrqiYV25v6W-36" vertex="1" connectable="0">
          <mxGeometry x="-0.385" y="1" relative="1" as="geometry">
            <mxPoint y="66" as="offset" />
          </mxGeometry>
        </mxCell>
        <mxCell id="JzWSlsFQanAfoUzJgyGZ-0" value="&lt;font style=&quot;font-size: 10px;&quot;&gt;FuncionÃ¡rio&lt;/font&gt;" style="rounded=1;whiteSpace=wrap;html=1;fillColor=#8b008b;strokeColor=none;fontColor=#FFFFFF;fontStyle=1" vertex="1" parent="WIyWlLk6GJQsqaUBKTNV-1">
          <mxGeometry x="1450" y="370" width="80" height="40" as="geometry" />
        </mxCell>
        <mxCell id="JzWSlsFQanAfoUzJgyGZ-135" value="" style="edgeStyle=none;shape=connector;rounded=0;orthogonalLoop=1;jettySize=auto;html=1;strokeColor=default;align=center;verticalAlign=middle;fontFamily=Helvetica;fontSize=11;fontColor=default;labelBackgroundColor=default;endArrow=none;endFill=0;" edge="1" parent="WIyWlLk6GJQsqaUBKTNV-1" source="JzWSlsFQanAfoUzJgyGZ-3" target="JzWSlsFQanAfoUzJgyGZ-132">
          <mxGeometry relative="1" as="geometry" />
        </mxCell>
        <mxCell id="JzWSlsFQanAfoUzJgyGZ-147" value="1, n" style="edgeLabel;html=1;align=center;verticalAlign=middle;resizable=0;points=[];fontFamily=Helvetica;fontSize=11;fontColor=default;labelBackgroundColor=default;" vertex="1" connectable="0" parent="JzWSlsFQanAfoUzJgyGZ-135">
          <mxGeometry x="0.1611" y="1" relative="1" as="geometry">
            <mxPoint as="offset" />
          </mxGeometry>
        </mxCell>
        <mxCell id="JzWSlsFQanAfoUzJgyGZ-139" value="" style="edgeStyle=none;shape=connector;rounded=0;orthogonalLoop=1;jettySize=auto;html=1;strokeColor=default;align=center;verticalAlign=middle;fontFamily=Helvetica;fontSize=11;fontColor=default;labelBackgroundColor=default;endArrow=none;endFill=0;" edge="1" parent="WIyWlLk6GJQsqaUBKTNV-1" source="JzWSlsFQanAfoUzJgyGZ-3" target="JzWSlsFQanAfoUzJgyGZ-136">
          <mxGeometry relative="1" as="geometry" />
        </mxCell>
        <mxCell id="JzWSlsFQanAfoUzJgyGZ-150" value="1, n" style="edgeLabel;html=1;align=center;verticalAlign=middle;resizable=0;points=[];fontFamily=Helvetica;fontSize=11;fontColor=default;labelBackgroundColor=default;" vertex="1" connectable="0" parent="JzWSlsFQanAfoUzJgyGZ-139">
          <mxGeometry x="-0.0107" y="-1" relative="1" as="geometry">
            <mxPoint as="offset" />
          </mxGeometry>
        </mxCell>
        <mxCell id="JzWSlsFQanAfoUzJgyGZ-3" value="&lt;font style=&quot;font-size: 10px;&quot;&gt;Processo&lt;/font&gt;" style="rounded=1;whiteSpace=wrap;html=1;fillColor=#8b008b;strokeColor=none;fontColor=#FFFFFF;fontStyle=1" vertex="1" parent="WIyWlLk6GJQsqaUBKTNV-1">
          <mxGeometry x="1201" y="450" width="80" height="40" as="geometry" />
        </mxCell>
        <mxCell id="JzWSlsFQanAfoUzJgyGZ-7" value="&lt;font style=&quot;font-size: 10px;&quot;&gt;Caixa&lt;/font&gt;" style="rounded=1;whiteSpace=wrap;html=1;fillColor=#8b008b;strokeColor=none;fontColor=#FFFFFF;fontStyle=1" vertex="1" parent="WIyWlLk6GJQsqaUBKTNV-1">
          <mxGeometry x="1421" y="590" width="81" height="40" as="geometry" />
        </mxCell>
        <mxCell id="JzWSlsFQanAfoUzJgyGZ-29" style="rounded=0;orthogonalLoop=1;jettySize=auto;html=1;exitX=1;exitY=0.25;exitDx=0;exitDy=0;endArrow=none;endFill=0;strokeColor=default;" edge="1" parent="WIyWlLk6GJQsqaUBKTNV-1" source="JzWSlsFQanAfoUzJgyGZ-8" target="JzWSlsFQanAfoUzJgyGZ-14">
          <mxGeometry relative="1" as="geometry" />
        </mxCell>
        <mxCell id="JzWSlsFQanAfoUzJgyGZ-133" style="edgeStyle=orthogonalEdgeStyle;shape=connector;rounded=0;orthogonalLoop=1;jettySize=auto;html=1;entryX=0;entryY=0.5;entryDx=0;entryDy=0;strokeColor=default;align=center;verticalAlign=middle;fontFamily=Helvetica;fontSize=11;fontColor=default;labelBackgroundColor=default;endArrow=none;endFill=0;" edge="1" parent="WIyWlLk6GJQsqaUBKTNV-1" source="JzWSlsFQanAfoUzJgyGZ-8" target="JzWSlsFQanAfoUzJgyGZ-132">
          <mxGeometry relative="1" as="geometry" />
        </mxCell>
        <mxCell id="JzWSlsFQanAfoUzJgyGZ-146" value="0, n" style="edgeLabel;html=1;align=center;verticalAlign=middle;resizable=0;points=[];fontFamily=Helvetica;fontSize=11;fontColor=default;labelBackgroundColor=default;" vertex="1" connectable="0" parent="JzWSlsFQanAfoUzJgyGZ-133">
          <mxGeometry x="-0.2626" relative="1" as="geometry">
            <mxPoint as="offset" />
          </mxGeometry>
        </mxCell>
        <mxCell id="JzWSlsFQanAfoUzJgyGZ-8" value="&lt;font style=&quot;font-size: 10px;&quot;&gt;Parte&lt;/font&gt;" style="rounded=1;whiteSpace=wrap;html=1;fillColor=#8b008b;strokeColor=none;fontColor=#FFFFFF;fontStyle=1" vertex="1" parent="WIyWlLk6GJQsqaUBKTNV-1">
          <mxGeometry x="990" y="290" width="80" height="40" as="geometry" />
        </mxCell>
        <mxCell id="JzWSlsFQanAfoUzJgyGZ-32" style="rounded=0;orthogonalLoop=1;jettySize=auto;html=1;entryX=0;entryY=0.75;entryDx=0;entryDy=0;endArrow=none;endFill=0;" edge="1" parent="WIyWlLk6GJQsqaUBKTNV-1" source="JzWSlsFQanAfoUzJgyGZ-10" target="JzWSlsFQanAfoUzJgyGZ-8">
          <mxGeometry relative="1" as="geometry" />
        </mxCell>
        <mxCell id="JzWSlsFQanAfoUzJgyGZ-10" value="nome" style="ellipse;whiteSpace=wrap;html=1;fontFamily=Helvetica;fontSize=11;fontColor=#FFFFFF;labelBackgroundColor=none;strokeColor=none;fillColor=#649e2b;" vertex="1" parent="WIyWlLk6GJQsqaUBKTNV-1">
          <mxGeometry x="920" y="310" width="60" height="30" as="geometry" />
        </mxCell>
        <mxCell id="JzWSlsFQanAfoUzJgyGZ-33" style="edgeStyle=none;shape=connector;rounded=0;orthogonalLoop=1;jettySize=auto;html=1;entryX=0;entryY=0.25;entryDx=0;entryDy=0;strokeColor=default;align=center;verticalAlign=middle;fontFamily=Helvetica;fontSize=11;fontColor=default;labelBackgroundColor=default;endArrow=none;endFill=0;" edge="1" parent="WIyWlLk6GJQsqaUBKTNV-1" source="JzWSlsFQanAfoUzJgyGZ-11" target="JzWSlsFQanAfoUzJgyGZ-8">
          <mxGeometry relative="1" as="geometry" />
        </mxCell>
        <mxCell id="JzWSlsFQanAfoUzJgyGZ-11" value="&lt;font style=&quot;font-size: 10px;&quot;&gt;nomeDoPai&lt;/font&gt;" style="ellipse;whiteSpace=wrap;html=1;fontFamily=Helvetica;fontSize=11;fontColor=#FFFFFF;labelBackgroundColor=none;strokeColor=none;fillColor=#649e2b;" vertex="1" parent="WIyWlLk6GJQsqaUBKTNV-1">
          <mxGeometry x="880" y="280" width="60" height="30" as="geometry" />
        </mxCell>
        <mxCell id="JzWSlsFQanAfoUzJgyGZ-34" style="edgeStyle=none;shape=connector;rounded=0;orthogonalLoop=1;jettySize=auto;html=1;exitX=1;exitY=1;exitDx=0;exitDy=0;strokeColor=default;align=center;verticalAlign=middle;fontFamily=Helvetica;fontSize=11;fontColor=default;labelBackgroundColor=default;endArrow=none;endFill=0;" edge="1" parent="WIyWlLk6GJQsqaUBKTNV-1" source="JzWSlsFQanAfoUzJgyGZ-12" target="JzWSlsFQanAfoUzJgyGZ-8">
          <mxGeometry relative="1" as="geometry" />
        </mxCell>
        <mxCell id="JzWSlsFQanAfoUzJgyGZ-12" value="&lt;font style=&quot;font-size: 10px;&quot;&gt;nomeDaMae&lt;/font&gt;" style="ellipse;whiteSpace=wrap;html=1;fontFamily=Helvetica;fontSize=11;fontColor=#FFFFFF;labelBackgroundColor=none;strokeColor=none;fillColor=#649e2b;" vertex="1" parent="WIyWlLk6GJQsqaUBKTNV-1">
          <mxGeometry x="880" y="231.5" width="60" height="30" as="geometry" />
        </mxCell>
        <mxCell id="JzWSlsFQanAfoUzJgyGZ-36" style="edgeStyle=none;shape=connector;rounded=0;orthogonalLoop=1;jettySize=auto;html=1;exitX=1;exitY=1;exitDx=0;exitDy=0;entryX=0.5;entryY=0;entryDx=0;entryDy=0;strokeColor=default;align=center;verticalAlign=middle;fontFamily=Helvetica;fontSize=11;fontColor=default;labelBackgroundColor=default;endArrow=none;endFill=0;" edge="1" parent="WIyWlLk6GJQsqaUBKTNV-1" source="JzWSlsFQanAfoUzJgyGZ-13" target="JzWSlsFQanAfoUzJgyGZ-8">
          <mxGeometry relative="1" as="geometry" />
        </mxCell>
        <mxCell id="JzWSlsFQanAfoUzJgyGZ-13" value="naturalidade" style="ellipse;whiteSpace=wrap;html=1;fontFamily=Helvetica;fontSize=11;fontColor=#FFFFFF;labelBackgroundColor=none;strokeColor=none;fillColor=#649e2b;" vertex="1" parent="WIyWlLk6GJQsqaUBKTNV-1">
          <mxGeometry x="970" y="158.5" width="70" height="31.5" as="geometry" />
        </mxCell>
        <mxCell id="JzWSlsFQanAfoUzJgyGZ-28" style="edgeStyle=orthogonalEdgeStyle;rounded=0;orthogonalLoop=1;jettySize=auto;html=1;endArrow=none;endFill=0;" edge="1" parent="WIyWlLk6GJQsqaUBKTNV-1" source="JzWSlsFQanAfoUzJgyGZ-14" target="JzWSlsFQanAfoUzJgyGZ-26">
          <mxGeometry relative="1" as="geometry" />
        </mxCell>
        <mxCell id="JzWSlsFQanAfoUzJgyGZ-14" value="telefone" style="ellipse;whiteSpace=wrap;html=1;fontFamily=Helvetica;fontSize=11;fontColor=#FFFFFF;labelBackgroundColor=none;strokeColor=none;fillColor=#649e2b;" vertex="1" parent="WIyWlLk6GJQsqaUBKTNV-1">
          <mxGeometry x="1090" y="248.5" width="60" height="30" as="geometry" />
        </mxCell>
        <mxCell id="JzWSlsFQanAfoUzJgyGZ-15" value="CPF/CNPJ" style="ellipse;whiteSpace=wrap;html=1;fontFamily=Helvetica;fontSize=11;fontColor=#FFFFFF;labelBackgroundColor=none;strokeColor=none;fillColor=#649e2b;" vertex="1" parent="WIyWlLk6GJQsqaUBKTNV-1">
          <mxGeometry x="1090" y="208.5" width="60" height="30" as="geometry" />
        </mxCell>
        <mxCell id="JzWSlsFQanAfoUzJgyGZ-16" value="classe" style="ellipse;whiteSpace=wrap;html=1;fontFamily=Helvetica;fontSize=11;fontColor=#FFFFFF;labelBackgroundColor=none;strokeColor=none;fillColor=#649e2b;" vertex="1" parent="WIyWlLk6GJQsqaUBKTNV-1">
          <mxGeometry x="1090" y="160" width="60" height="30" as="geometry" />
        </mxCell>
        <mxCell id="JzWSlsFQanAfoUzJgyGZ-31" style="rounded=0;orthogonalLoop=1;jettySize=auto;html=1;exitX=0.5;exitY=1;exitDx=0;exitDy=0;entryX=0.75;entryY=0;entryDx=0;entryDy=0;endArrow=none;endFill=0;" edge="1" parent="WIyWlLk6GJQsqaUBKTNV-1" source="JzWSlsFQanAfoUzJgyGZ-17" target="JzWSlsFQanAfoUzJgyGZ-8">
          <mxGeometry relative="1" as="geometry" />
        </mxCell>
        <mxCell id="JzWSlsFQanAfoUzJgyGZ-17" value="genero" style="ellipse;whiteSpace=wrap;html=1;fontFamily=Helvetica;fontSize=11;fontColor=#FFFFFF;labelBackgroundColor=none;strokeColor=none;fillColor=#649e2b;" vertex="1" parent="WIyWlLk6GJQsqaUBKTNV-1">
          <mxGeometry x="1036" y="184" width="60" height="30" as="geometry" />
        </mxCell>
        <mxCell id="JzWSlsFQanAfoUzJgyGZ-37" style="edgeStyle=none;shape=connector;rounded=0;orthogonalLoop=1;jettySize=auto;html=1;strokeColor=default;align=center;verticalAlign=middle;fontFamily=Helvetica;fontSize=11;fontColor=default;labelBackgroundColor=default;endArrow=none;endFill=0;" edge="1" parent="WIyWlLk6GJQsqaUBKTNV-1" source="JzWSlsFQanAfoUzJgyGZ-23" target="JzWSlsFQanAfoUzJgyGZ-8">
          <mxGeometry relative="1" as="geometry" />
        </mxCell>
        <mxCell id="JzWSlsFQanAfoUzJgyGZ-23" value="&lt;font style=&quot;font-size: 9px;&quot;&gt;dataNascimento&lt;/font&gt;" style="ellipse;whiteSpace=wrap;html=1;fontFamily=Helvetica;fontSize=11;fontColor=#FFFFFF;labelBackgroundColor=none;strokeColor=none;fillColor=#649e2b;" vertex="1" parent="WIyWlLk6GJQsqaUBKTNV-1">
          <mxGeometry x="950" y="200" width="70" height="30" as="geometry" />
        </mxCell>
        <mxCell id="JzWSlsFQanAfoUzJgyGZ-35" style="edgeStyle=none;shape=connector;rounded=0;orthogonalLoop=1;jettySize=auto;html=1;exitX=0.5;exitY=1;exitDx=0;exitDy=0;entryX=0.25;entryY=0;entryDx=0;entryDy=0;strokeColor=default;align=center;verticalAlign=middle;fontFamily=Helvetica;fontSize=11;fontColor=default;labelBackgroundColor=default;endArrow=none;endFill=0;" edge="1" parent="WIyWlLk6GJQsqaUBKTNV-1" source="JzWSlsFQanAfoUzJgyGZ-24" target="JzWSlsFQanAfoUzJgyGZ-8">
          <mxGeometry relative="1" as="geometry" />
        </mxCell>
        <mxCell id="JzWSlsFQanAfoUzJgyGZ-24" value="endereco" style="ellipse;whiteSpace=wrap;html=1;fontFamily=Helvetica;fontSize=11;fontColor=#FFFFFF;labelBackgroundColor=none;strokeColor=none;fillColor=#649e2b;" vertex="1" parent="WIyWlLk6GJQsqaUBKTNV-1">
          <mxGeometry x="890" y="183" width="60" height="34" as="geometry" />
        </mxCell>
        <mxCell id="JzWSlsFQanAfoUzJgyGZ-25" value="numero" style="ellipse;whiteSpace=wrap;html=1;fontFamily=Helvetica;fontSize=11;fontColor=#FFFFFF;labelBackgroundColor=none;strokeColor=none;fillColor=#649e2b;" vertex="1" parent="WIyWlLk6GJQsqaUBKTNV-1">
          <mxGeometry x="1157" y="268.5" width="46" height="21" as="geometry" />
        </mxCell>
        <mxCell id="JzWSlsFQanAfoUzJgyGZ-26" value="ddd" style="ellipse;whiteSpace=wrap;html=1;fontFamily=Helvetica;fontSize=11;fontColor=#FFFFFF;labelBackgroundColor=none;strokeColor=none;fillColor=#649e2b;" vertex="1" parent="WIyWlLk6GJQsqaUBKTNV-1">
          <mxGeometry x="1157" y="241.5" width="46" height="21" as="geometry" />
        </mxCell>
        <mxCell id="JzWSlsFQanAfoUzJgyGZ-27" style="edgeStyle=orthogonalEdgeStyle;rounded=0;orthogonalLoop=1;jettySize=auto;html=1;entryX=0.774;entryY=0.887;entryDx=0;entryDy=0;entryPerimeter=0;endArrow=none;endFill=0;" edge="1" parent="WIyWlLk6GJQsqaUBKTNV-1" source="JzWSlsFQanAfoUzJgyGZ-25" target="JzWSlsFQanAfoUzJgyGZ-14">
          <mxGeometry relative="1" as="geometry" />
        </mxCell>
        <mxCell id="JzWSlsFQanAfoUzJgyGZ-30" style="rounded=0;orthogonalLoop=1;jettySize=auto;html=1;entryX=0.913;entryY=0.039;entryDx=0;entryDy=0;entryPerimeter=0;endArrow=none;endFill=0;exitX=0;exitY=1;exitDx=0;exitDy=0;" edge="1" parent="WIyWlLk6GJQsqaUBKTNV-1" source="JzWSlsFQanAfoUzJgyGZ-15" target="JzWSlsFQanAfoUzJgyGZ-8">
          <mxGeometry relative="1" as="geometry" />
        </mxCell>
        <mxCell id="JzWSlsFQanAfoUzJgyGZ-39" value="rua" style="ellipse;whiteSpace=wrap;html=1;fontFamily=Helvetica;fontSize=11;fontColor=#FFFFFF;labelBackgroundColor=none;strokeColor=none;fillColor=#649e2b;" vertex="1" parent="WIyWlLk6GJQsqaUBKTNV-1">
          <mxGeometry x="844" y="163" width="46" height="21" as="geometry" />
        </mxCell>
        <mxCell id="JzWSlsFQanAfoUzJgyGZ-43" style="edgeStyle=none;shape=connector;rounded=0;orthogonalLoop=1;jettySize=auto;html=1;exitX=0.655;exitY=0.889;exitDx=0;exitDy=0;strokeColor=default;align=center;verticalAlign=middle;fontFamily=Helvetica;fontSize=11;fontColor=default;labelBackgroundColor=default;endArrow=none;endFill=0;exitPerimeter=0;" edge="1" parent="WIyWlLk6GJQsqaUBKTNV-1" source="JzWSlsFQanAfoUzJgyGZ-40" target="JzWSlsFQanAfoUzJgyGZ-24">
          <mxGeometry relative="1" as="geometry" />
        </mxCell>
        <mxCell id="JzWSlsFQanAfoUzJgyGZ-40" value="numero" style="ellipse;whiteSpace=wrap;html=1;fontFamily=Helvetica;fontSize=11;fontColor=#FFFFFF;labelBackgroundColor=none;strokeColor=none;fillColor=#649e2b;" vertex="1" parent="WIyWlLk6GJQsqaUBKTNV-1">
          <mxGeometry x="864" y="136" width="46" height="21" as="geometry" />
        </mxCell>
        <mxCell id="JzWSlsFQanAfoUzJgyGZ-44" style="edgeStyle=none;shape=connector;rounded=0;orthogonalLoop=1;jettySize=auto;html=1;strokeColor=default;align=center;verticalAlign=middle;fontFamily=Helvetica;fontSize=11;fontColor=default;labelBackgroundColor=default;endArrow=none;endFill=0;" edge="1" parent="WIyWlLk6GJQsqaUBKTNV-1" source="JzWSlsFQanAfoUzJgyGZ-41" target="JzWSlsFQanAfoUzJgyGZ-24">
          <mxGeometry relative="1" as="geometry" />
        </mxCell>
        <mxCell id="JzWSlsFQanAfoUzJgyGZ-41" value="complemento" style="ellipse;whiteSpace=wrap;html=1;fontFamily=Helvetica;fontSize=9;fontColor=#FFFFFF;labelBackgroundColor=none;strokeColor=none;fillColor=#649e2b;" vertex="1" parent="WIyWlLk6GJQsqaUBKTNV-1">
          <mxGeometry x="909" y="146" width="61" height="21" as="geometry" />
        </mxCell>
        <mxCell id="JzWSlsFQanAfoUzJgyGZ-42" style="edgeStyle=none;shape=connector;rounded=0;orthogonalLoop=1;jettySize=auto;html=1;exitX=0.5;exitY=1;exitDx=0;exitDy=0;entryX=0.061;entryY=0.644;entryDx=0;entryDy=0;entryPerimeter=0;strokeColor=default;align=center;verticalAlign=middle;fontFamily=Helvetica;fontSize=11;fontColor=default;labelBackgroundColor=default;endArrow=none;endFill=0;" edge="1" parent="WIyWlLk6GJQsqaUBKTNV-1" source="JzWSlsFQanAfoUzJgyGZ-39" target="JzWSlsFQanAfoUzJgyGZ-24">
          <mxGeometry relative="1" as="geometry" />
        </mxCell>
        <mxCell id="JzWSlsFQanAfoUzJgyGZ-46" style="edgeStyle=none;shape=connector;rounded=0;orthogonalLoop=1;jettySize=auto;html=1;strokeColor=default;align=center;verticalAlign=middle;fontFamily=Helvetica;fontSize=11;fontColor=default;labelBackgroundColor=default;endArrow=none;endFill=0;" edge="1" parent="WIyWlLk6GJQsqaUBKTNV-1" source="JzWSlsFQanAfoUzJgyGZ-45" target="JzWSlsFQanAfoUzJgyGZ-24">
          <mxGeometry relative="1" as="geometry" />
        </mxCell>
        <mxCell id="JzWSlsFQanAfoUzJgyGZ-45" value="CEP" style="ellipse;whiteSpace=wrap;html=1;fontFamily=Helvetica;fontSize=11;fontColor=#FFFFFF;labelBackgroundColor=none;strokeColor=none;fillColor=#649e2b;" vertex="1" parent="WIyWlLk6GJQsqaUBKTNV-1">
          <mxGeometry x="827" y="200" width="46" height="21" as="geometry" />
        </mxCell>
        <mxCell id="JzWSlsFQanAfoUzJgyGZ-51" value="nroCaixa" style="ellipse;whiteSpace=wrap;html=1;fontFamily=Helvetica;fontSize=11;fontColor=#FFFFFF;labelBackgroundColor=none;strokeColor=none;fillColor=#649e2b;" vertex="1" parent="WIyWlLk6GJQsqaUBKTNV-1">
          <mxGeometry x="1361" y="662" width="71" height="31.5" as="geometry" />
        </mxCell>
        <mxCell id="JzWSlsFQanAfoUzJgyGZ-55" value="localizacao" style="ellipse;whiteSpace=wrap;html=1;fontFamily=Helvetica;fontSize=11;fontColor=#FFFFFF;labelBackgroundColor=none;strokeColor=none;fillColor=#649e2b;" vertex="1" parent="WIyWlLk6GJQsqaUBKTNV-1">
          <mxGeometry x="1395" y="697" width="80" height="30" as="geometry" />
        </mxCell>
        <mxCell id="JzWSlsFQanAfoUzJgyGZ-74" style="edgeStyle=none;shape=connector;rounded=0;orthogonalLoop=1;jettySize=auto;html=1;strokeColor=default;align=center;verticalAlign=middle;fontFamily=Helvetica;fontSize=11;fontColor=default;labelBackgroundColor=default;endArrow=none;endFill=0;" edge="1" parent="WIyWlLk6GJQsqaUBKTNV-1" source="JzWSlsFQanAfoUzJgyGZ-56" target="JzWSlsFQanAfoUzJgyGZ-7">
          <mxGeometry relative="1" as="geometry" />
        </mxCell>
        <mxCell id="JzWSlsFQanAfoUzJgyGZ-56" value="nroProcesso" style="ellipse;whiteSpace=wrap;html=1;fontFamily=Helvetica;fontSize=11;fontColor=#FFFFFF;labelBackgroundColor=none;strokeColor=none;fillColor=#649e2b;" vertex="1" parent="WIyWlLk6GJQsqaUBKTNV-1">
          <mxGeometry x="1461" y="672" width="72" height="30" as="geometry" />
        </mxCell>
        <mxCell id="JzWSlsFQanAfoUzJgyGZ-75" style="edgeStyle=none;shape=connector;rounded=0;orthogonalLoop=1;jettySize=auto;html=1;strokeColor=default;align=center;verticalAlign=middle;fontFamily=Helvetica;fontSize=11;fontColor=default;labelBackgroundColor=default;endArrow=none;endFill=0;" edge="1" parent="WIyWlLk6GJQsqaUBKTNV-1" source="JzWSlsFQanAfoUzJgyGZ-57" target="JzWSlsFQanAfoUzJgyGZ-7">
          <mxGeometry relative="1" as="geometry" />
        </mxCell>
        <mxCell id="JzWSlsFQanAfoUzJgyGZ-57" value="&lt;font style=&quot;font-size: 9px;&quot;&gt;dataNascimento&lt;/font&gt;" style="ellipse;whiteSpace=wrap;html=1;fontFamily=Helvetica;fontSize=11;fontColor=#FFFFFF;labelBackgroundColor=none;strokeColor=none;fillColor=#649e2b;" vertex="1" parent="WIyWlLk6GJQsqaUBKTNV-1">
          <mxGeometry x="1510" y="643.5" width="75" height="30" as="geometry" />
        </mxCell>
        <mxCell id="JzWSlsFQanAfoUzJgyGZ-68" value="numero" style="ellipse;whiteSpace=wrap;html=1;fontFamily=Helvetica;fontSize=11;fontColor=#FFFFFF;labelBackgroundColor=none;strokeColor=none;fillColor=#649e2b;" vertex="1" parent="WIyWlLk6GJQsqaUBKTNV-1">
          <mxGeometry x="1375" y="738" width="48" height="22" as="geometry" />
        </mxCell>
        <mxCell id="JzWSlsFQanAfoUzJgyGZ-69" value="complemento" style="ellipse;whiteSpace=wrap;html=1;fontFamily=Helvetica;fontSize=9;fontColor=#FFFFFF;labelBackgroundColor=none;strokeColor=none;fillColor=#649e2b;" vertex="1" parent="WIyWlLk6GJQsqaUBKTNV-1">
          <mxGeometry x="1435" y="739" width="63" height="22" as="geometry" />
        </mxCell>
        <mxCell id="JzWSlsFQanAfoUzJgyGZ-70" style="edgeStyle=none;shape=connector;rounded=0;orthogonalLoop=1;jettySize=auto;html=1;entryX=0.675;entryY=0.971;entryDx=0;entryDy=0;entryPerimeter=0;strokeColor=default;align=center;verticalAlign=middle;fontFamily=Helvetica;fontSize=11;fontColor=default;labelBackgroundColor=default;endArrow=none;endFill=0;" edge="1" parent="WIyWlLk6GJQsqaUBKTNV-1" source="JzWSlsFQanAfoUzJgyGZ-69" target="JzWSlsFQanAfoUzJgyGZ-55">
          <mxGeometry relative="1" as="geometry" />
        </mxCell>
        <mxCell id="JzWSlsFQanAfoUzJgyGZ-71" style="edgeStyle=none;shape=connector;rounded=0;orthogonalLoop=1;jettySize=auto;html=1;entryX=0.349;entryY=0.876;entryDx=0;entryDy=0;entryPerimeter=0;strokeColor=default;align=center;verticalAlign=middle;fontFamily=Helvetica;fontSize=11;fontColor=default;labelBackgroundColor=default;endArrow=none;endFill=0;" edge="1" parent="WIyWlLk6GJQsqaUBKTNV-1" source="JzWSlsFQanAfoUzJgyGZ-68" target="JzWSlsFQanAfoUzJgyGZ-55">
          <mxGeometry relative="1" as="geometry" />
        </mxCell>
        <mxCell id="JzWSlsFQanAfoUzJgyGZ-72" style="edgeStyle=none;shape=connector;rounded=0;orthogonalLoop=1;jettySize=auto;html=1;entryX=0.159;entryY=0.929;entryDx=0;entryDy=0;entryPerimeter=0;strokeColor=default;align=center;verticalAlign=middle;fontFamily=Helvetica;fontSize=11;fontColor=default;labelBackgroundColor=default;endArrow=none;endFill=0;" edge="1" parent="WIyWlLk6GJQsqaUBKTNV-1" source="JzWSlsFQanAfoUzJgyGZ-51" target="JzWSlsFQanAfoUzJgyGZ-7">
          <mxGeometry relative="1" as="geometry" />
        </mxCell>
        <mxCell id="JzWSlsFQanAfoUzJgyGZ-73" style="edgeStyle=none;shape=connector;rounded=0;orthogonalLoop=1;jettySize=auto;html=1;entryX=0.33;entryY=0.968;entryDx=0;entryDy=0;entryPerimeter=0;strokeColor=default;align=center;verticalAlign=middle;fontFamily=Helvetica;fontSize=11;fontColor=default;labelBackgroundColor=default;endArrow=none;endFill=0;" edge="1" parent="WIyWlLk6GJQsqaUBKTNV-1" source="JzWSlsFQanAfoUzJgyGZ-55" target="JzWSlsFQanAfoUzJgyGZ-7">
          <mxGeometry relative="1" as="geometry" />
        </mxCell>
        <mxCell id="JzWSlsFQanAfoUzJgyGZ-100" style="edgeStyle=none;shape=connector;rounded=0;orthogonalLoop=1;jettySize=auto;html=1;exitX=1;exitY=1;exitDx=0;exitDy=0;strokeColor=default;align=center;verticalAlign=middle;fontFamily=Helvetica;fontSize=11;fontColor=default;labelBackgroundColor=default;endArrow=none;endFill=0;" edge="1" parent="WIyWlLk6GJQsqaUBKTNV-1" source="JzWSlsFQanAfoUzJgyGZ-77" target="JzWSlsFQanAfoUzJgyGZ-3">
          <mxGeometry relative="1" as="geometry" />
        </mxCell>
        <mxCell id="JzWSlsFQanAfoUzJgyGZ-77" value="&lt;font style=&quot;font-size: 10px;&quot;&gt;nroProcesso&lt;/font&gt;" style="ellipse;whiteSpace=wrap;html=1;fontFamily=Helvetica;fontSize=11;fontColor=#FFFFFF;labelBackgroundColor=none;strokeColor=none;fillColor=#649e2b;" vertex="1" parent="WIyWlLk6GJQsqaUBKTNV-1">
          <mxGeometry x="1140" y="412.5" width="68" height="30" as="geometry" />
        </mxCell>
        <mxCell id="JzWSlsFQanAfoUzJgyGZ-96" style="edgeStyle=none;shape=connector;rounded=0;orthogonalLoop=1;jettySize=auto;html=1;entryX=1;entryY=0.25;entryDx=0;entryDy=0;strokeColor=default;align=center;verticalAlign=middle;fontFamily=Helvetica;fontSize=11;fontColor=default;labelBackgroundColor=default;endArrow=none;endFill=0;" edge="1" parent="WIyWlLk6GJQsqaUBKTNV-1" source="JzWSlsFQanAfoUzJgyGZ-80" target="JzWSlsFQanAfoUzJgyGZ-3">
          <mxGeometry relative="1" as="geometry">
            <mxPoint x="1291" y="440" as="targetPoint" />
          </mxGeometry>
        </mxCell>
        <mxCell id="JzWSlsFQanAfoUzJgyGZ-80" value="nroVolume" style="ellipse;whiteSpace=wrap;html=1;fontFamily=Helvetica;fontSize=11;fontColor=#FFFFFF;labelBackgroundColor=none;strokeColor=none;fillColor=#649e2b;" vertex="1" parent="WIyWlLk6GJQsqaUBKTNV-1">
          <mxGeometry x="1308" y="410" width="66" height="30" as="geometry" />
        </mxCell>
        <mxCell id="JzWSlsFQanAfoUzJgyGZ-83" value="sentenca" style="ellipse;whiteSpace=wrap;html=1;fontFamily=Helvetica;fontSize=11;fontColor=#FFFFFF;labelBackgroundColor=none;strokeColor=none;fillColor=#649e2b;" vertex="1" parent="WIyWlLk6GJQsqaUBKTNV-1">
          <mxGeometry x="1307" y="372" width="60" height="30" as="geometry" />
        </mxCell>
        <mxCell id="JzWSlsFQanAfoUzJgyGZ-98" style="edgeStyle=none;shape=connector;rounded=0;orthogonalLoop=1;jettySize=auto;html=1;exitX=0.5;exitY=1;exitDx=0;exitDy=0;strokeColor=default;align=center;verticalAlign=middle;fontFamily=Helvetica;fontSize=11;fontColor=default;labelBackgroundColor=default;endArrow=none;endFill=0;entryX=0.75;entryY=0;entryDx=0;entryDy=0;" edge="1" parent="WIyWlLk6GJQsqaUBKTNV-1" source="JzWSlsFQanAfoUzJgyGZ-84" target="JzWSlsFQanAfoUzJgyGZ-3">
          <mxGeometry relative="1" as="geometry" />
        </mxCell>
        <mxCell id="JzWSlsFQanAfoUzJgyGZ-84" value="&lt;font style=&quot;font-size: 11px;&quot;&gt;sigilo&lt;/font&gt;" style="ellipse;whiteSpace=wrap;html=1;fontFamily=Helvetica;fontSize=11;fontColor=#FFFFFF;labelBackgroundColor=none;strokeColor=none;fillColor=#649e2b;" vertex="1" parent="WIyWlLk6GJQsqaUBKTNV-1">
          <mxGeometry x="1245" y="371" width="52" height="26" as="geometry" />
        </mxCell>
        <mxCell id="JzWSlsFQanAfoUzJgyGZ-99" style="edgeStyle=none;shape=connector;rounded=0;orthogonalLoop=1;jettySize=auto;html=1;exitX=1;exitY=1;exitDx=0;exitDy=0;entryX=0.5;entryY=0;entryDx=0;entryDy=0;strokeColor=default;align=center;verticalAlign=middle;fontFamily=Helvetica;fontSize=11;fontColor=default;labelBackgroundColor=default;endArrow=none;endFill=0;" edge="1" parent="WIyWlLk6GJQsqaUBKTNV-1" source="JzWSlsFQanAfoUzJgyGZ-85" target="JzWSlsFQanAfoUzJgyGZ-3">
          <mxGeometry relative="1" as="geometry" />
        </mxCell>
        <mxCell id="JzWSlsFQanAfoUzJgyGZ-85" value="tipoProcesso" style="ellipse;whiteSpace=wrap;html=1;fontFamily=Helvetica;fontSize=11;fontColor=#FFFFFF;labelBackgroundColor=none;strokeColor=none;fillColor=#649e2b;" vertex="1" parent="WIyWlLk6GJQsqaUBKTNV-1">
          <mxGeometry x="1150" y="364" width="76" height="34" as="geometry" />
        </mxCell>
        <mxCell id="JzWSlsFQanAfoUzJgyGZ-88" value="classeProcessual" style="ellipse;whiteSpace=wrap;html=1;fontFamily=Helvetica;fontSize=11;fontColor=#FFFFFF;labelBackgroundColor=none;strokeColor=none;fillColor=#649e2b;" vertex="1" parent="WIyWlLk6GJQsqaUBKTNV-1">
          <mxGeometry x="1110" y="320" width="94" height="37" as="geometry" />
        </mxCell>
        <mxCell id="JzWSlsFQanAfoUzJgyGZ-93" style="edgeStyle=none;shape=connector;rounded=0;orthogonalLoop=1;jettySize=auto;html=1;exitX=0.5;exitY=1;exitDx=0;exitDy=0;entryX=0.257;entryY=0.088;entryDx=0;entryDy=0;entryPerimeter=0;strokeColor=default;align=center;verticalAlign=middle;fontFamily=Helvetica;fontSize=11;fontColor=default;labelBackgroundColor=default;endArrow=none;endFill=0;" edge="1" parent="WIyWlLk6GJQsqaUBKTNV-1" source="JzWSlsFQanAfoUzJgyGZ-88" target="JzWSlsFQanAfoUzJgyGZ-85">
          <mxGeometry relative="1" as="geometry" />
        </mxCell>
        <mxCell id="JzWSlsFQanAfoUzJgyGZ-94" style="edgeStyle=none;shape=connector;rounded=0;orthogonalLoop=1;jettySize=auto;html=1;strokeColor=default;align=center;verticalAlign=middle;fontFamily=Helvetica;fontSize=11;fontColor=default;labelBackgroundColor=default;endArrow=none;endFill=0;" edge="1" parent="WIyWlLk6GJQsqaUBKTNV-1" source="JzWSlsFQanAfoUzJgyGZ-95" target="JzWSlsFQanAfoUzJgyGZ-85">
          <mxGeometry relative="1" as="geometry" />
        </mxCell>
        <mxCell id="JzWSlsFQanAfoUzJgyGZ-95" value="nome" style="ellipse;whiteSpace=wrap;html=1;fontFamily=Helvetica;fontSize=11;fontColor=#FFFFFF;labelBackgroundColor=none;strokeColor=none;fillColor=#649e2b;" vertex="1" parent="WIyWlLk6GJQsqaUBKTNV-1">
          <mxGeometry x="1097" y="381" width="46" height="21" as="geometry" />
        </mxCell>
        <mxCell id="JzWSlsFQanAfoUzJgyGZ-97" style="edgeStyle=none;shape=connector;rounded=0;orthogonalLoop=1;jettySize=auto;html=1;entryX=0.925;entryY=0;entryDx=0;entryDy=0;entryPerimeter=0;strokeColor=default;align=center;verticalAlign=middle;fontFamily=Helvetica;fontSize=11;fontColor=default;labelBackgroundColor=default;endArrow=none;endFill=0;exitX=0.103;exitY=0.736;exitDx=0;exitDy=0;exitPerimeter=0;" edge="1" parent="WIyWlLk6GJQsqaUBKTNV-1" source="JzWSlsFQanAfoUzJgyGZ-83" target="JzWSlsFQanAfoUzJgyGZ-3">
          <mxGeometry relative="1" as="geometry">
            <mxPoint x="1287.08" y="428.4799999999999" as="targetPoint" />
          </mxGeometry>
        </mxCell>
        <mxCell id="JzWSlsFQanAfoUzJgyGZ-110" style="edgeStyle=none;shape=connector;rounded=0;orthogonalLoop=1;jettySize=auto;html=1;entryX=1;entryY=0.5;entryDx=0;entryDy=0;strokeColor=default;align=center;verticalAlign=middle;fontFamily=Helvetica;fontSize=11;fontColor=default;labelBackgroundColor=default;endArrow=none;endFill=0;" edge="1" parent="WIyWlLk6GJQsqaUBKTNV-1" source="JzWSlsFQanAfoUzJgyGZ-103" target="JzWSlsFQanAfoUzJgyGZ-0">
          <mxGeometry relative="1" as="geometry" />
        </mxCell>
        <mxCell id="JzWSlsFQanAfoUzJgyGZ-103" value="dataNascimento" style="ellipse;whiteSpace=wrap;html=1;fontFamily=Helvetica;fontSize=11;fontColor=#FFFFFF;labelBackgroundColor=none;strokeColor=none;fillColor=#649e2b;" vertex="1" parent="WIyWlLk6GJQsqaUBKTNV-1">
          <mxGeometry x="1550" y="372" width="93" height="38" as="geometry" />
        </mxCell>
        <mxCell id="JzWSlsFQanAfoUzJgyGZ-109" style="edgeStyle=none;shape=connector;rounded=0;orthogonalLoop=1;jettySize=auto;html=1;strokeColor=default;align=center;verticalAlign=middle;fontFamily=Helvetica;fontSize=11;fontColor=default;labelBackgroundColor=default;endArrow=none;endFill=0;" edge="1" parent="WIyWlLk6GJQsqaUBKTNV-1" source="JzWSlsFQanAfoUzJgyGZ-104" target="JzWSlsFQanAfoUzJgyGZ-0">
          <mxGeometry relative="1" as="geometry" />
        </mxCell>
        <mxCell id="JzWSlsFQanAfoUzJgyGZ-104" value="nome" style="ellipse;whiteSpace=wrap;html=1;fontFamily=Helvetica;fontSize=11;fontColor=#FFFFFF;labelBackgroundColor=none;strokeColor=none;fillColor=#649e2b;" vertex="1" parent="WIyWlLk6GJQsqaUBKTNV-1">
          <mxGeometry x="1390" y="312.5" width="60" height="30" as="geometry" />
        </mxCell>
        <mxCell id="JzWSlsFQanAfoUzJgyGZ-107" style="edgeStyle=none;shape=connector;rounded=0;orthogonalLoop=1;jettySize=auto;html=1;entryX=0.5;entryY=0;entryDx=0;entryDy=0;strokeColor=default;align=center;verticalAlign=middle;fontFamily=Helvetica;fontSize=11;fontColor=default;labelBackgroundColor=default;endArrow=none;endFill=0;" edge="1" parent="WIyWlLk6GJQsqaUBKTNV-1" source="JzWSlsFQanAfoUzJgyGZ-105" target="JzWSlsFQanAfoUzJgyGZ-0">
          <mxGeometry relative="1" as="geometry" />
        </mxCell>
        <mxCell id="JzWSlsFQanAfoUzJgyGZ-105" value="cargo" style="ellipse;whiteSpace=wrap;html=1;fontFamily=Helvetica;fontSize=11;fontColor=#FFFFFF;labelBackgroundColor=none;strokeColor=none;fillColor=#649e2b;" vertex="1" parent="WIyWlLk6GJQsqaUBKTNV-1">
          <mxGeometry x="1457" y="312.5" width="66" height="30" as="geometry" />
        </mxCell>
        <mxCell id="JzWSlsFQanAfoUzJgyGZ-108" style="edgeStyle=none;shape=connector;rounded=0;orthogonalLoop=1;jettySize=auto;html=1;strokeColor=default;align=center;verticalAlign=middle;fontFamily=Helvetica;fontSize=11;fontColor=default;labelBackgroundColor=default;endArrow=none;endFill=0;" edge="1" parent="WIyWlLk6GJQsqaUBKTNV-1" source="JzWSlsFQanAfoUzJgyGZ-106" target="JzWSlsFQanAfoUzJgyGZ-0">
          <mxGeometry relative="1" as="geometry" />
        </mxCell>
        <mxCell id="JzWSlsFQanAfoUzJgyGZ-106" value="codVerificacao" style="ellipse;whiteSpace=wrap;html=1;fontFamily=Helvetica;fontSize=11;fontColor=#FFFFFF;labelBackgroundColor=none;strokeColor=none;fillColor=#649e2b;" vertex="1" parent="WIyWlLk6GJQsqaUBKTNV-1">
          <mxGeometry x="1520" y="330" width="85" height="30" as="geometry" />
        </mxCell>
        <mxCell id="JzWSlsFQanAfoUzJgyGZ-125" value="0, n" style="edgeStyle=orthogonalEdgeStyle;shape=connector;rounded=0;orthogonalLoop=1;jettySize=auto;html=1;strokeColor=default;align=center;verticalAlign=middle;fontFamily=Helvetica;fontSize=11;fontColor=default;labelBackgroundColor=default;endArrow=none;endFill=0;elbow=vertical;entryX=0.061;entryY=0.509;entryDx=0;entryDy=0;entryPerimeter=0;" edge="1" parent="WIyWlLk6GJQsqaUBKTNV-1" source="JzWSlsFQanAfoUzJgyGZ-112" target="JzWSlsFQanAfoUzJgyGZ-126">
          <mxGeometry relative="1" as="geometry">
            <mxPoint x="1170" y="610" as="targetPoint" />
          </mxGeometry>
        </mxCell>
        <mxCell id="JzWSlsFQanAfoUzJgyGZ-112" value="&lt;font style=&quot;font-size: 10px;&quot;&gt;Movimentacao&lt;/font&gt;" style="rounded=1;whiteSpace=wrap;html=1;fillColor=#8b008b;strokeColor=none;fontColor=#FFFFFF;fontStyle=1" vertex="1" parent="WIyWlLk6GJQsqaUBKTNV-1">
          <mxGeometry x="969" y="590" width="80" height="40" as="geometry" />
        </mxCell>
        <mxCell id="JzWSlsFQanAfoUzJgyGZ-113" value="nroMovimentacao" style="ellipse;whiteSpace=wrap;html=1;fontFamily=Helvetica;fontSize=11;fontColor=#FFFFFF;labelBackgroundColor=none;strokeColor=none;fillColor=#649e2b;" vertex="1" parent="WIyWlLk6GJQsqaUBKTNV-1">
          <mxGeometry x="891" y="650.5" width="99" height="35.5" as="geometry" />
        </mxCell>
        <mxCell id="JzWSlsFQanAfoUzJgyGZ-115" style="edgeStyle=none;shape=connector;rounded=0;orthogonalLoop=1;jettySize=auto;html=1;strokeColor=default;align=center;verticalAlign=middle;fontFamily=Helvetica;fontSize=11;fontColor=default;labelBackgroundColor=default;endArrow=none;endFill=0;entryX=0.5;entryY=1;entryDx=0;entryDy=0;" edge="1" parent="WIyWlLk6GJQsqaUBKTNV-1" source="JzWSlsFQanAfoUzJgyGZ-116" target="JzWSlsFQanAfoUzJgyGZ-112">
          <mxGeometry relative="1" as="geometry">
            <mxPoint x="998" y="630" as="targetPoint" />
          </mxGeometry>
        </mxCell>
        <mxCell id="JzWSlsFQanAfoUzJgyGZ-116" value="tipoMovimentacao" style="ellipse;whiteSpace=wrap;html=1;fontFamily=Helvetica;fontSize=11;fontColor=#FFFFFF;labelBackgroundColor=none;strokeColor=none;fillColor=#649e2b;" vertex="1" parent="WIyWlLk6GJQsqaUBKTNV-1">
          <mxGeometry x="953.5" y="692" width="110" height="39" as="geometry" />
        </mxCell>
        <mxCell id="JzWSlsFQanAfoUzJgyGZ-117" style="edgeStyle=none;shape=connector;rounded=0;orthogonalLoop=1;jettySize=auto;html=1;strokeColor=default;align=center;verticalAlign=middle;fontFamily=Helvetica;fontSize=11;fontColor=default;labelBackgroundColor=default;endArrow=none;endFill=0;entryX=0.838;entryY=0.975;entryDx=0;entryDy=0;entryPerimeter=0;" edge="1" parent="WIyWlLk6GJQsqaUBKTNV-1" source="JzWSlsFQanAfoUzJgyGZ-118" target="JzWSlsFQanAfoUzJgyGZ-112">
          <mxGeometry relative="1" as="geometry">
            <mxPoint x="1015.4639175257732" y="640" as="targetPoint" />
          </mxGeometry>
        </mxCell>
        <mxCell id="JzWSlsFQanAfoUzJgyGZ-118" value="&lt;font style=&quot;font-size: 9px;&quot;&gt;dataMovimentacao&lt;/font&gt;" style="ellipse;whiteSpace=wrap;html=1;fontFamily=Helvetica;fontSize=11;fontColor=#FFFFFF;labelBackgroundColor=none;strokeColor=none;fillColor=#649e2b;" vertex="1" parent="WIyWlLk6GJQsqaUBKTNV-1">
          <mxGeometry x="1049" y="652" width="89" height="35" as="geometry" />
        </mxCell>
        <mxCell id="JzWSlsFQanAfoUzJgyGZ-123" style="edgeStyle=none;shape=connector;rounded=0;orthogonalLoop=1;jettySize=auto;html=1;entryX=0.25;entryY=1;entryDx=0;entryDy=0;strokeColor=default;align=center;verticalAlign=middle;fontFamily=Helvetica;fontSize=11;fontColor=default;labelBackgroundColor=default;endArrow=none;endFill=0;" edge="1" parent="WIyWlLk6GJQsqaUBKTNV-1" source="JzWSlsFQanAfoUzJgyGZ-113">
          <mxGeometry relative="1" as="geometry">
            <mxPoint x="978" y="630" as="targetPoint" />
          </mxGeometry>
        </mxCell>
        <mxCell id="JzWSlsFQanAfoUzJgyGZ-128" style="edgeStyle=orthogonalEdgeStyle;shape=connector;rounded=0;orthogonalLoop=1;jettySize=auto;html=1;entryX=0.25;entryY=1;entryDx=0;entryDy=0;strokeColor=default;align=center;verticalAlign=middle;fontFamily=Helvetica;fontSize=11;fontColor=default;labelBackgroundColor=default;endArrow=none;endFill=0;exitX=1;exitY=0.5;exitDx=0;exitDy=0;elbow=vertical;" edge="1" parent="WIyWlLk6GJQsqaUBKTNV-1" source="JzWSlsFQanAfoUzJgyGZ-126" target="JzWSlsFQanAfoUzJgyGZ-3">
          <mxGeometry relative="1" as="geometry">
            <mxPoint x="1220" y="610" as="sourcePoint" />
            <Array as="points">
              <mxPoint x="1220" y="610" />
              <mxPoint x="1220" y="490" />
            </Array>
          </mxGeometry>
        </mxCell>
        <mxCell id="JzWSlsFQanAfoUzJgyGZ-143" value="1, n" style="edgeLabel;html=1;align=center;verticalAlign=middle;resizable=0;points=[];fontFamily=Helvetica;fontSize=11;fontColor=default;labelBackgroundColor=default;" vertex="1" connectable="0" parent="JzWSlsFQanAfoUzJgyGZ-128">
          <mxGeometry x="-0.0949" y="3" relative="1" as="geometry">
            <mxPoint y="-11" as="offset" />
          </mxGeometry>
        </mxCell>
        <mxCell id="JzWSlsFQanAfoUzJgyGZ-126" value="Possui" style="rhombus;whiteSpace=wrap;html=1;strokeColor=none;fillColor=#d4ac0d;fontSize=8;fontColor=#FFFFFF;fontStyle=1" vertex="1" parent="WIyWlLk6GJQsqaUBKTNV-1">
          <mxGeometry x="1125" y="590" width="80" height="40" as="geometry" />
        </mxCell>
        <mxCell id="JzWSlsFQanAfoUzJgyGZ-130" style="edgeStyle=none;shape=connector;rounded=0;orthogonalLoop=1;jettySize=auto;html=1;entryX=0;entryY=0.5;entryDx=0;entryDy=0;strokeColor=default;align=center;verticalAlign=middle;fontFamily=Helvetica;fontSize=11;fontColor=default;labelBackgroundColor=default;endArrow=none;endFill=0;" edge="1" parent="WIyWlLk6GJQsqaUBKTNV-1" source="JzWSlsFQanAfoUzJgyGZ-129" target="JzWSlsFQanAfoUzJgyGZ-7">
          <mxGeometry relative="1" as="geometry" />
        </mxCell>
        <mxCell id="JzWSlsFQanAfoUzJgyGZ-141" value="1, n" style="edgeLabel;html=1;align=center;verticalAlign=middle;resizable=0;points=[];fontFamily=Helvetica;fontSize=11;fontColor=default;labelBackgroundColor=default;" vertex="1" connectable="0" parent="JzWSlsFQanAfoUzJgyGZ-130">
          <mxGeometry x="0.1299" relative="1" as="geometry">
            <mxPoint as="offset" />
          </mxGeometry>
        </mxCell>
        <mxCell id="JzWSlsFQanAfoUzJgyGZ-131" style="edgeStyle=orthogonalEdgeStyle;shape=connector;rounded=0;orthogonalLoop=1;jettySize=auto;html=1;entryX=0.75;entryY=1;entryDx=0;entryDy=0;strokeColor=default;align=center;verticalAlign=middle;fontFamily=Helvetica;fontSize=11;fontColor=default;labelBackgroundColor=default;endArrow=none;endFill=0;exitX=0;exitY=0.5;exitDx=0;exitDy=0;elbow=vertical;" edge="1" parent="WIyWlLk6GJQsqaUBKTNV-1">
          <mxGeometry relative="1" as="geometry">
            <mxPoint x="1294" y="610" as="sourcePoint" />
            <mxPoint x="1264" y="490" as="targetPoint" />
            <Array as="points">
              <mxPoint x="1263" y="610" />
              <mxPoint x="1263" y="490" />
            </Array>
          </mxGeometry>
        </mxCell>
        <mxCell id="JzWSlsFQanAfoUzJgyGZ-142" value="1, n" style="edgeLabel;html=1;align=center;verticalAlign=middle;resizable=0;points=[];fontFamily=Helvetica;fontSize=11;fontColor=default;labelBackgroundColor=default;" vertex="1" connectable="0" parent="JzWSlsFQanAfoUzJgyGZ-131">
          <mxGeometry x="0.3235" y="-1" relative="1" as="geometry">
            <mxPoint y="12" as="offset" />
          </mxGeometry>
        </mxCell>
        <mxCell id="JzWSlsFQanAfoUzJgyGZ-129" value="Armazenado" style="rhombus;whiteSpace=wrap;html=1;strokeColor=none;fillColor=#d4ac0d;fontSize=8;fontColor=#FFFFFF;fontStyle=1" vertex="1" parent="WIyWlLk6GJQsqaUBKTNV-1">
          <mxGeometry x="1281" y="590" width="81" height="40" as="geometry" />
        </mxCell>
        <mxCell id="JzWSlsFQanAfoUzJgyGZ-132" value="Possui" style="rhombus;whiteSpace=wrap;html=1;strokeColor=none;fillColor=#d4ac0d;fontSize=8;fontColor=#FFFFFF;fontStyle=1" vertex="1" parent="WIyWlLk6GJQsqaUBKTNV-1">
          <mxGeometry x="1058" y="450" width="80" height="40" as="geometry" />
        </mxCell>
        <mxCell id="JzWSlsFQanAfoUzJgyGZ-137" style="edgeStyle=elbowEdgeStyle;shape=connector;rounded=0;orthogonalLoop=1;jettySize=auto;html=1;entryX=0.5;entryY=1;entryDx=0;entryDy=0;strokeColor=default;align=center;verticalAlign=middle;fontFamily=Helvetica;fontSize=11;fontColor=default;labelBackgroundColor=default;endArrow=none;endFill=0;exitX=1;exitY=0.5;exitDx=0;exitDy=0;" edge="1" parent="WIyWlLk6GJQsqaUBKTNV-1" source="JzWSlsFQanAfoUzJgyGZ-136" target="JzWSlsFQanAfoUzJgyGZ-0">
          <mxGeometry relative="1" as="geometry">
            <Array as="points">
              <mxPoint x="1490" y="440" />
            </Array>
          </mxGeometry>
        </mxCell>
        <mxCell id="JzWSlsFQanAfoUzJgyGZ-149" value="1, n" style="edgeLabel;html=1;align=center;verticalAlign=middle;resizable=0;points=[];fontFamily=Helvetica;fontSize=11;fontColor=default;labelBackgroundColor=default;" vertex="1" connectable="0" parent="JzWSlsFQanAfoUzJgyGZ-137">
          <mxGeometry x="-0.4066" relative="1" as="geometry">
            <mxPoint x="9" as="offset" />
          </mxGeometry>
        </mxCell>
        <mxCell id="JzWSlsFQanAfoUzJgyGZ-136" value="Atua /&amp;nbsp;&lt;div&gt;Atuam&lt;/div&gt;" style="rhombus;whiteSpace=wrap;html=1;strokeColor=none;fillColor=#d4ac0d;fontSize=8;fontColor=#FFFFFF;fontStyle=1" vertex="1" parent="WIyWlLk6GJQsqaUBKTNV-1">
          <mxGeometry x="1370" y="450" width="81" height="40" as="geometry" />
        </mxCell>
        <mxCell id="JzWSlsFQanAfoUzJgyGZ-154" value="" style="edgeStyle=none;shape=connector;rounded=0;orthogonalLoop=1;jettySize=auto;html=1;strokeColor=default;align=center;verticalAlign=middle;fontFamily=Helvetica;fontSize=11;fontColor=default;labelBackgroundColor=default;endArrow=none;endFill=0;" edge="1" parent="WIyWlLk6GJQsqaUBKTNV-1" source="JzWSlsFQanAfoUzJgyGZ-153" target="JzWSlsFQanAfoUzJgyGZ-7">
          <mxGeometry relative="1" as="geometry" />
        </mxCell>
        <mxCell id="JzWSlsFQanAfoUzJgyGZ-160" value="0, n" style="edgeLabel;html=1;align=center;verticalAlign=middle;resizable=0;points=[];fontFamily=Helvetica;fontSize=11;fontColor=default;labelBackgroundColor=default;" vertex="1" connectable="0" parent="JzWSlsFQanAfoUzJgyGZ-154">
          <mxGeometry x="0.0693" y="-1" relative="1" as="geometry">
            <mxPoint as="offset" />
          </mxGeometry>
        </mxCell>
        <mxCell id="JzWSlsFQanAfoUzJgyGZ-157" style="edgeStyle=orthogonalEdgeStyle;shape=connector;rounded=0;orthogonalLoop=1;jettySize=auto;html=1;exitX=1;exitY=0.5;exitDx=0;exitDy=0;strokeColor=default;align=center;verticalAlign=middle;fontFamily=Helvetica;fontSize=11;fontColor=default;labelBackgroundColor=default;endArrow=none;endFill=0;elbow=vertical;entryX=0.75;entryY=1;entryDx=0;entryDy=0;" edge="1" parent="WIyWlLk6GJQsqaUBKTNV-1" source="JzWSlsFQanAfoUzJgyGZ-153" target="JzWSlsFQanAfoUzJgyGZ-0">
          <mxGeometry relative="1" as="geometry">
            <mxPoint x="1520" y="520.0769230769231" as="targetPoint" />
            <Array as="points">
              <mxPoint x="1510" y="520" />
            </Array>
          </mxGeometry>
        </mxCell>
        <mxCell id="JzWSlsFQanAfoUzJgyGZ-159" value="0, n" style="edgeLabel;html=1;align=center;verticalAlign=middle;resizable=0;points=[];fontFamily=Helvetica;fontSize=11;fontColor=default;labelBackgroundColor=default;" vertex="1" connectable="0" parent="JzWSlsFQanAfoUzJgyGZ-157">
          <mxGeometry x="-0.3752" relative="1" as="geometry">
            <mxPoint as="offset" />
          </mxGeometry>
        </mxCell>
        <mxCell id="JzWSlsFQanAfoUzJgyGZ-153" value="Manipula" style="rhombus;whiteSpace=wrap;html=1;strokeColor=none;fillColor=#d4ac0d;fontSize=8;fontColor=#FFFFFF;fontStyle=1" vertex="1" parent="WIyWlLk6GJQsqaUBKTNV-1">
          <mxGeometry x="1421" y="500" width="81" height="40" as="geometry" />
        </mxCell>
      </root>
    </mxGraphModel>
  </diagram>
</mxfile>
